<?xml version="1.0" encoding="UTF-8" standalone="no"?>
<!-- Svg Vector Icons : http://www.onlinewebfonts.com/icon -->

<svg
   version="1.1"
   x="0px"
   y="0px"
   viewBox="0 0 1000 1000"
   enable-background="new 0 0 256 256"
   xml:space="preserve"
   id="svg20"
   sodipodi:docname="fission.svg"
   width="1000"
   height="1000"
   inkscape:version="1.2.2 (b0a84865, 2022-12-01)"
   inkscape:export-filename="fission.png"
   inkscape:export-xdpi="6.1440001"
   inkscape:export-ydpi="6.1440001"
   xmlns:inkscape="http://www.inkscape.org/namespaces/inkscape"
   xmlns:sodipodi="http://sodipodi.sourceforge.net/DTD/sodipodi-0.dtd"
   xmlns="http://www.w3.org/2000/svg"
   xmlns:svg="http://www.w3.org/2000/svg"><defs
   id="defs24"><inkscape:path-effect
     effect="fillet_chamfer"
     id="path-effect923"
     is_visible="true"
     lpeversion="1"
     nodesatellites_param="F,0,0,1,0,10,0,1 @ F,0,0,1,0,10,0,1 @ F,0,0,1,0,10,0,1 @ F,0,0,1,0,10,0,1"
     unit="px"
     method="auto"
     mode="F"
     radius="10"
     chamfer_steps="1"
     flexible="false"
     use_knot_distance="true"
     apply_no_radius="true"
     apply_with_radius="true"
     only_selected="false"
     hide_knots="false" /><inkscape:path-effect
     effect="fillet_chamfer"
     id="path-effect921"
     is_visible="true"
     lpeversion="1"
     nodesatellites_param="F,0,0,1,0,10,0,1 @ F,0,0,1,0,10,0,1 @ F,0,0,1,0,10,0,1 @ F,0,0,1,0,10,0,1"
     unit="px"
     method="auto"
     mode="F"
     radius="10"
     chamfer_steps="1"
     flexible="false"
     use_knot_distance="true"
     apply_no_radius="true"
     apply_with_radius="true"
     only_selected="false"
     hide_knots="false" /><inkscape:path-effect
     effect="fillet_chamfer"
     id="path-effect919"
     is_visible="true"
     lpeversion="1"
     nodesatellites_param="F,0,0,1,0,10,0,1 @ F,0,0,1,0,10,0,1 @ F,0,0,1,0,10,0,1 @ F,0,0,1,0,10,0,1"
     unit="px"
     method="auto"
     mode="F"
     radius="10"
     chamfer_steps="1"
     flexible="false"
     use_knot_distance="true"
     apply_no_radius="true"
     apply_with_radius="true"
     only_selected="false"
     hide_knots="false" /></defs><sodipodi:namedview
   id="namedview22"
   pagecolor="#505050"
   bordercolor="#eeeeee"
   borderopacity="1"
   inkscape:showpageshadow="0"
   inkscape:pageopacity="0"
   inkscape:pagecheckerboard="0"
   inkscape:deskcolor="#505050"
   showgrid="false"
   inkscape:zoom="0.68948581"
   inkscape:cx="511.25055"
   inkscape:cy="443.80899"
   inkscape:window-width="1512"
   inkscape:window-height="916"
   inkscape:window-x="0"
   inkscape:window-y="38"
   inkscape:window-maximized="1"
   inkscape:current-layer="svg20" />
<metadata
   id="metadata2"> Svg Vector Icons : http://www.onlinewebfonts.com/icon </metadata>
<g
   id="g1055"
   transform="matrix(0.89285714,0,0,0.89285714,53.57143,53.57143)"><path
     style="fill:#777777;fill-opacity:1;stroke-width:0;stroke-linecap:round;stroke-linejoin:round"
     id="rect363"
     width="1000"
     height="1000"
     x="0"
     y="0"
     inkscape:path-effect="#path-effect919"
     d="m 10,0 h 980 a 10,10 45 0 1 10,10 v 980 a 10,10 135 0 1 -10,10 H 10 A 10,10 45 0 1 0,990 V 10 A 10,10 135 0 1 10,0 Z"
     sodipodi:type="rect" /><g
     id="g1633"><rect
       style="fill:#365442;fill-opacity:1;stroke-width:0;stroke-linecap:round;stroke-linejoin:round"
       id="rect1063"
       width="100"
       height="100"
       x="0"
       y="0"
       rx="11.2"
       ry="11.2" /><rect
       style="fill:#365442;fill-opacity:1;stroke-width:0;stroke-linecap:round;stroke-linejoin:round"
       id="rect1063-5"
       width="100"
       height="100"
       x="900"
       y="0"
       rx="11.2"
       ry="11.2" /><rect
       style="fill:#365442;fill-opacity:1;stroke-width:0;stroke-linecap:round;stroke-linejoin:round"
       id="rect1063-5-6"
       width="100"
       height="100"
       x="900"
       y="900"
       rx="11.2"
       ry="11.2" /><rect
       style="fill:#365442;fill-opacity:1;stroke-width:0;stroke-linecap:round;stroke-linejoin:round"
       id="rect1063-5-6-0"
       width="100"
       height="100"
       x="0"
       y="900"
       rx="11.2"
       ry="11.2" /></g><path
     style="fill:#444444;fill-opacity:1;stroke-width:0;stroke-linecap:round;stroke-linejoin:round"
     id="rect361"
     width="900"
     height="900"
     x="50"
     y="50"
     inkscape:path-effect="#path-effect921"
     d="m 60,50 h 880 a 10,10 45 0 1 10,10 v 880 a 10,10 135 0 1 -10,10 H 60 A 10,10 45 0 1 50,940 V 60 A 10,10 135 0 1 60,50 Z"
     sodipodi:type="rect" /><path
     style="fill:#93993c;fill-opacity:1;stroke-width:0;stroke-linecap:round;stroke-linejoin:round"
     id="rect305"
     width="800"
     height="800"
     x="100"
     y="100"
     inkscape:path-effect="#path-effect923"
     d="m 110,100 h 780 a 10,10 45 0 1 10,10 v 780 a 10,10 135 0 1 -10,10 H 110 A 10,10 45 0 1 100,890 V 110 a 10,10 135 0 1 10,-10 z"
     sodipodi:type="rect" /><rect
     style="fill:#777777;fill-opacity:1;stroke-width:0;stroke-linecap:round;stroke-linejoin:round"
     id="rect1050"
     width="60"
     height="150"
     x="998.88049"
     y="425"
     inkscape:label="rect1050" /><rect
     style="fill:#777777;fill-opacity:1;stroke-width:0;stroke-linecap:round;stroke-linejoin:round"
     id="rect977"
     width="60"
     height="200"
     x="-58.880001"
     y="700" /><g
     style="fill:#000000"
     id="g1694"
     transform="matrix(16.411603,0,0,16.411603,352.73485,100.38929)" /><rect
     style="fill:#777777;fill-opacity:1;stroke-width:0;stroke-linecap:round;stroke-linejoin:round"
     id="rect1700"
     width="60"
     height="200"
     x="-58.880001"
     y="100" /><rect
     style="fill:#777777;fill-opacity:1;stroke-width:0;stroke-linecap:round;stroke-linejoin:round"
     id="rect307"
     width="60"
     height="200"
     x="-58.880001"
     y="400" /></g><g
   id="g1683"
   style="fill:#000000"
   transform="matrix(14.286887,0,0,14.286887,151.78572,151.8)">
	<g
   id="g1681">
		<path
   d="M 48.746,24.605 C 48.746,21.092 44.32,18.54 38.251,17.043 40.329,11.666 40.691,7.012 38.007,5.022 37.272,4.477 36.365,4.201 35.315,4.201 32.18,4.201 27.852,6.716 23.396,10.897 18.891,6.433 14.522,3.737 11.407,3.737 10.454,3.737 9.627,3.984 8.946,4.471 6.836,5.985 6.526,9.41 8.051,14.376 8.35,15.35 8.727,16.366 9.15,17.403 3.785,18.933 0,21.358 0,24.605 c 0,3.199 3.675,5.601 8.914,7.134 -2.223,5.557 -2.687,10.405 0.069,12.448 0.736,0.545 1.642,0.82 2.692,0.82 3.133,0 7.454,-2.51 11.905,-6.683 4.264,4.069 8.354,6.493 11.312,6.493 0.953,0 1.78,-0.247 2.461,-0.734 2.605,-1.869 2.262,-6.434 0.258,-11.77 6.393,-1.465 11.135,-4.071 11.135,-7.708 z M 35.314,6.202 c 0.611,0 1.117,0.144 1.5,0.429 1.588,1.176 1.412,4.945 -0.553,9.975 -2.707,-0.539 -5.656,-0.884 -8.637,-1.029 -0.938,-1.15 -1.885,-2.229 -2.832,-3.238 C 29.123,8.297 33,6.202 35.314,6.202 Z M 15.955,29.438 c 0.468,0.651 0.942,1.285 1.42,1.908 -2.074,-0.229 -3.982,-0.558 -5.702,-0.953 0.609,-1.318 1.317,-2.695 2.146,-4.125 0.676,1.058 1.383,2.119 2.136,3.17 z m -4.03,-10.67 c 1.568,-0.353 3.287,-0.646 5.145,-0.86 -0.317,0.408 -0.634,0.816 -0.946,1.237 -0.794,1.072 -1.556,2.178 -2.284,3.299 -0.709,-1.245 -1.348,-2.474 -1.915,-3.676 z m 3.05,5.589 c 0.83,-1.314 1.747,-2.66 2.756,-4.021 0.7,-0.945 1.403,-1.832 2.105,-2.685 1.45,-0.1 2.962,-0.156 4.535,-0.156 0.769,0 1.52,0.015 2.26,0.04 0.694,0.874 1.391,1.783 2.086,2.751 1.176,1.64 2.213,3.246 3.143,4.81 -0.791,1.238 -1.654,2.502 -2.604,3.781 -0.727,0.98 -1.457,1.902 -2.186,2.783 -0.881,0.035 -1.777,0.058 -2.699,0.058 -1.475,0 -2.891,-0.054 -4.259,-0.142 -0.843,-1.037 -1.688,-2.129 -2.532,-3.305 -0.931,-1.298 -1.8,-2.609 -2.605,-3.914 z m 15.889,5.711 c 0.729,-0.986 1.43,-2.002 2.104,-3.029 0.719,1.318 1.348,2.588 1.883,3.801 -1.571,0.279 -3.269,0.5 -5.074,0.65 0.364,-0.467 0.728,-0.937 1.087,-1.422 z M 30.342,19.12 c -0.354,-0.491 -0.71,-0.97 -1.066,-1.443 2.234,0.167 4.312,0.442 6.193,0.804 -0.674,1.492 -1.478,3.063 -2.438,4.699 -0.845,-1.379 -1.745,-2.743 -2.689,-4.06 z M 24.955,15.5 c -0.194,-0.002 -0.389,-0.005 -0.583,-0.005 -0.91,0 -1.825,0.021 -2.738,0.06 0.581,-0.645 1.156,-1.244 1.728,-1.822 0.526,0.561 1.057,1.148 1.593,1.767 z M 10.11,6.098 c 0.333,-0.238 0.769,-0.359 1.295,-0.359 2.281,0 6.181,2.238 10.558,6.56 -1.048,1.062 -2.096,2.204 -3.131,3.429 -2.703,0.229 -5.333,0.623 -7.731,1.177 C 10.657,15.835 10.269,14.791 9.962,13.793 8.765,9.898 8.821,7.022 10.11,6.098 Z M 1.998,24.605 c 0,-1.911 2.974,-3.944 7.956,-5.347 0.766,1.66 1.668,3.367 2.688,5.095 -1.112,1.848 -2.104,3.711 -2.934,5.53 -4.835,-1.397 -7.71,-3.397 -7.71,-5.278 z m 9.676,18.405 c -0.612,0 -1.118,-0.144 -1.501,-0.428 -1.624,-1.204 -1.4,-5.123 0.694,-10.327 2.542,0.603 5.353,1.021 8.241,1.252 1.012,1.214 2.03,2.354 3.047,3.403 -4.313,4.018 -8.174,6.1 -10.481,6.1 z m 10.209,-9.34 c 0.83,0.031 1.661,0.048 2.488,0.048 0.312,0 0.623,-0.003 0.935,-0.008 -0.575,0.636 -1.145,1.229 -1.711,1.802 -0.565,-0.58 -1.136,-1.196 -1.712,-1.842 z m 14.305,8.791 c -1.7,1.221 -6.061,-0.703 -11.167,-5.541 1.013,-1.025 2.023,-2.127 3.025,-3.307 2.607,-0.146 5.184,-0.441 7.586,-0.887 1.9,4.969 2.079,8.641 0.556,9.735 z m 0.664,-12.023 c -0.75,-1.735 -1.658,-3.525 -2.67,-5.312 1.262,-2.073 2.387,-4.175 3.291,-6.208 5.771,1.396 9.272,3.614 9.272,5.688 0.001,2.148 -3.755,4.447 -9.893,5.832 z"
   id="path1677" />
		<circle
   cx="24.372"
   cy="24.606001"
   r="3.882"
   id="circle1679" />
	</g>
</g>
</svg>
