<?xml version="1.0" encoding="UTF-8" standalone="no"?>
<!-- Svg Vector Icons : http://www.onlinewebfonts.com/icon -->

<svg
   version="1.1"
   x="0px"
   y="0px"
   viewBox="0 0 1000 1000"
   enable-background="new 0 0 256 256"
   xml:space="preserve"
   id="svg20"
   sodipodi:docname="turbine.svg"
   width="1000"
   height="1000"
   inkscape:version="1.2.2 (b0a84865, 2022-12-01)"
   inkscape:export-filename="turbine.png"
   inkscape:export-xdpi="6.1440001"
   inkscape:export-ydpi="6.1440001"
   xmlns:inkscape="http://www.inkscape.org/namespaces/inkscape"
   xmlns:sodipodi="http://sodipodi.sourceforge.net/DTD/sodipodi-0.dtd"
   xmlns="http://www.w3.org/2000/svg"
   xmlns:svg="http://www.w3.org/2000/svg"><defs
   id="defs24"><inkscape:path-effect
     effect="fillet_chamfer"
     id="path-effect923"
     is_visible="true"
     lpeversion="1"
     nodesatellites_param="F,0,0,1,0,10,0,1 @ F,0,0,1,0,10,0,1 @ F,0,0,1,0,10,0,1 @ F,0,0,1,0,10,0,1"
     unit="px"
     method="auto"
     mode="F"
     radius="10"
     chamfer_steps="1"
     flexible="false"
     use_knot_distance="true"
     apply_no_radius="true"
     apply_with_radius="true"
     only_selected="false"
     hide_knots="false" /><inkscape:path-effect
     effect="fillet_chamfer"
     id="path-effect921"
     is_visible="true"
     lpeversion="1"
     nodesatellites_param="F,0,0,1,0,10,0,1 @ F,0,0,1,0,10,0,1 @ F,0,0,1,0,10,0,1 @ F,0,0,1,0,10,0,1"
     unit="px"
     method="auto"
     mode="F"
     radius="10"
     chamfer_steps="1"
     flexible="false"
     use_knot_distance="true"
     apply_no_radius="true"
     apply_with_radius="true"
     only_selected="false"
     hide_knots="false" /><inkscape:path-effect
     effect="fillet_chamfer"
     id="path-effect919"
     is_visible="true"
     lpeversion="1"
     nodesatellites_param="F,0,0,1,0,10,0,1 @ F,0,0,1,0,10,0,1 @ F,0,0,1,0,10,0,1 @ F,0,0,1,0,10,0,1"
     unit="px"
     method="auto"
     mode="F"
     radius="10"
     chamfer_steps="1"
     flexible="false"
     use_knot_distance="true"
     apply_no_radius="true"
     apply_with_radius="true"
     only_selected="false"
     hide_knots="false" /></defs><sodipodi:namedview
   id="namedview22"
   pagecolor="#505050"
   bordercolor="#eeeeee"
   borderopacity="1"
   inkscape:showpageshadow="0"
   inkscape:pageopacity="0"
   inkscape:pagecheckerboard="0"
   inkscape:deskcolor="#505050"
   showgrid="false"
   inkscape:zoom="0.81363981"
   inkscape:cx="628.65656"
   inkscape:cy="535.86365"
   inkscape:window-width="1512"
   inkscape:window-height="916"
   inkscape:window-x="0"
   inkscape:window-y="38"
   inkscape:window-maximized="1"
   inkscape:current-layer="svg20" />
<metadata
   id="metadata2"> Svg Vector Icons : http://www.onlinewebfonts.com/icon </metadata>
<g
   id="g1055"
   transform="matrix(0.89285714,0,0,0.89285714,53.57143,53.57143)"><path
     style="fill:#777777;fill-opacity:1;stroke-width:0;stroke-linecap:round;stroke-linejoin:round"
     id="rect363"
     width="1000"
     height="1000"
     x="0"
     y="0"
     inkscape:path-effect="#path-effect919"
     d="m 10,0 h 980 a 10,10 45 0 1 10,10 v 980 a 10,10 135 0 1 -10,10 H 10 A 10,10 45 0 1 0,990 V 10 A 10,10 135 0 1 10,0 Z"
     sodipodi:type="rect" /><g
     id="g1633"><rect
       style="fill:#365442;fill-opacity:1;stroke-width:0;stroke-linecap:round;stroke-linejoin:round"
       id="rect1063"
       width="100"
       height="100"
       x="0"
       y="0"
       ry="11.2"
       rx="11.2" /><rect
       style="fill:#365442;fill-opacity:1;stroke-width:0;stroke-linecap:round;stroke-linejoin:round"
       id="rect1063-5"
       width="100"
       height="100"
       x="900"
       y="0"
       ry="11.2"
       rx="11.2" /><rect
       style="fill:#365442;fill-opacity:1;stroke-width:0;stroke-linecap:round;stroke-linejoin:round"
       id="rect1063-5-6"
       width="100"
       height="100"
       x="900"
       y="900"
       rx="11.2"
       ry="11.2" /><rect
       style="fill:#365442;fill-opacity:1;stroke-width:0;stroke-linecap:round;stroke-linejoin:round"
       id="rect1063-5-6-0"
       width="100"
       height="100"
       x="0"
       y="900"
       ry="11.2"
       rx="11.2" /></g><path
     style="fill:#444444;fill-opacity:1;stroke-width:0;stroke-linecap:round;stroke-linejoin:round"
     id="rect361"
     width="900"
     height="900"
     x="50"
     y="50"
     inkscape:path-effect="#path-effect921"
     d="m 60,50 h 880 a 10,10 45 0 1 10,10 v 880 a 10,10 135 0 1 -10,10 H 60 A 10,10 45 0 1 50,940 V 60 A 10,10 135 0 1 60,50 Z"
     sodipodi:type="rect" /><path
     style="fill:#4778b5;stroke-width:0;stroke-linecap:round;stroke-linejoin:round"
     id="rect305"
     width="800"
     height="800"
     x="100"
     y="100"
     inkscape:path-effect="#path-effect923"
     d="m 110,100 h 780 a 10,10 45 0 1 10,10 v 780 a 10,10 135 0 1 -10,10 H 110 A 10,10 45 0 1 100,890 V 110 a 10,10 135 0 1 10,-10 z"
     sodipodi:type="rect" /><rect
     style="fill:#777777;fill-opacity:1;stroke-width:0;stroke-linecap:round;stroke-linejoin:round"
     id="rect1050"
     width="60"
     height="150"
     x="998.88049"
     y="425"
     inkscape:label="rect1050" /><rect
     style="fill:#777777;fill-opacity:1;stroke-width:0;stroke-linecap:round;stroke-linejoin:round"
     id="rect977"
     width="60"
     height="300"
     x="-58.880001"
     y="600" /><rect
     style="fill:#777777;fill-opacity:1;stroke-width:0;stroke-linecap:round;stroke-linejoin:round"
     id="rect309"
     width="60"
     height="300"
     x="-58.880001"
     y="100" /></g>
<g
   id="g18"
   transform="matrix(2.6480676,0,0,2.6480676,161.01932,160.94103)"><g
     id="g16"><g
       id="g14"><path
         fill="#000000"
         d="m 118.9,10.2 c -4.2,0.4 -12.8,1.8 -13.1,2.1 -0.1,0.1 0.3,0.2 0.9,0.2 3.6,0 15.1,1 18.9,1.7 6.1,1 15.7,3.6 21.3,5.6 3.8,1.4 16.7,7.2 17.4,7.8 0.1,0.1 -1,1.4 -2.4,3 -1.4,1.6 -3.6,4.7 -4.9,7 -1.8,2.9 -2.6,4 -3.1,3.8 -8.1,-2.5 -17.2,-3.6 -27.3,-3.3 -6.7,0.2 -15.3,1.2 -16,1.8 -0.1,0.1 2.8,0.3 6.4,0.5 7.8,0.3 14.6,1.5 22,4 5.4,1.8 13,5 13,5.5 0,0.2 -2.1,6.9 -4.6,15 -2.6,8.1 -4.6,14.9 -4.5,15.1 0.1,0.2 1.8,1.1 3.9,1.9 7.3,3 14.7,8.4 19.5,14.4 5.8,7.2 8.4,13.1 10.8,23.9 0.1,0.6 44.6,-22.9 47.7,-25.2 7.8,-6 13.6,-16.3 15.6,-27.7 3.3,-19 -6.4,-38.1 -23.8,-47.1 -11.5,-6 -25.1,-6.6 -37.4,-1.8 l -3.1,1.2 -5.2,-2 C 162.4,14.3 154.4,12.2 145.4,10.9 139.7,10 124.1,9.7 118.9,10.2 Z"
         id="path4" /><path
         fill="#000000"
         d="m 52.1,15.5 c -18.7,3.6 -33,18 -36.4,36.8 -0.7,4 -0.6,12.4 0.2,16.3 0.4,1.8 1.3,5.1 2.1,7.3 l 1.5,4.1 -2.3,6.1 c -2.7,7.1 -5.2,16.7 -6.4,24.6 -0.6,4.2 -0.8,8.1 -0.8,15.9 0,9.9 0.3,13.1 1.9,21.9 l 0.4,1.8 0.3,-2.5 c 0.2,-1.4 0.3,-3.9 0.4,-5.6 0.1,-8.4 3.2,-23.5 6.7,-32.9 1.3,-3.6 7.3,-16.9 7.9,-17.7 0.1,-0.1 1.4,1 3,2.3 2.8,2.5 9.5,6.8 10.5,6.9 0.7,0 0.7,-0.3 -0.6,4.8 -2,7.8 -2.7,14.3 -2.4,23.6 0.2,6.9 1.2,15.6 1.8,16.3 0.1,0.1 0.3,-2.9 0.5,-6.6 0.3,-8 1.8,-15.6 4.3,-22.8 1.8,-5.3 4.8,-12 5.2,-12 0.2,0 7,2.1 15.1,4.6 8.1,2.5 14.9,4.6 15.1,4.5 0.2,0 1,-1.6 1.7,-3.5 C 87.9,94 102.6,82.1 119.8,79 120.4,78.9 118.4,74.5 108.9,56.4 102.4,44 96.2,32.7 95.1,31.2 89.7,24.2 81.3,18.9 71.3,16.4 66,14.9 57,14.6 52.1,15.5 Z"
         id="path6" /><path
         fill="#000000"
         d="m 122.1,88.2 c -16,2.5 -28.9,14 -33.1,29.8 -1.4,5.2 -1.4,14.6 0,19.7 3.4,12.4 12,22.3 23.4,27.1 5.6,2.4 9,3 15.7,3 7.2,0 11.3,-1 17.6,-4.1 10.1,-5 18.1,-14.7 21,-25.8 1.3,-4.8 1.4,-14.1 0.3,-18.8 -3.6,-14.8 -14.8,-26.2 -29.3,-29.9 -4.2,-1.1 -11.6,-1.6 -15.6,-1 z m 11.2,28.1 c 2.8,1.5 4.4,3 5.9,5.7 1.2,2.1 1.3,3 1.3,5.9 0,3 -0.2,3.8 -1.3,5.9 -2.5,4.6 -6.1,6.7 -11.3,6.7 -5.2,0 -8.8,-2.1 -11.3,-6.7 -1.2,-2.1 -1.4,-2.9 -1.3,-5.9 0,-3.6 0.6,-5.2 2.8,-8.2 1.2,-1.7 4.5,-3.7 6.7,-4.3 2.3,-0.6 6.4,-0.1 8.5,0.9 z"
         id="path8" /><path
         fill="#000000"
         d="m 243.1,105.5 c 0.5,1.4 -0.6,15.5 -1.6,21.1 -2,11.1 -4.8,20 -10.2,31.4 -1.6,3.4 -3,6.3 -3,6.4 -0.1,0.1 -1.4,-1 -3,-2.4 -1.6,-1.4 -4.7,-3.6 -7,-4.9 -2.9,-1.8 -4,-2.6 -3.8,-3.1 2.5,-8.1 3.6,-17.2 3.3,-27.3 -0.2,-6.7 -1.2,-15.3 -1.8,-16 -0.1,-0.1 -0.3,2.9 -0.5,6.6 -0.3,8 -1.8,15.6 -4.3,22.8 -1.8,5.2 -4.8,12 -5.2,12 -0.2,0 -6.9,-2.1 -15,-4.6 -8.1,-2.6 -14.9,-4.6 -15.1,-4.5 -0.2,0.1 -1.1,1.8 -1.9,3.9 -3,7.3 -8.4,14.7 -14.4,19.5 -7.2,5.8 -13.4,8.6 -23.9,10.8 -0.6,0.1 23.1,45.1 25.4,48 5.6,7.2 15.5,12.9 26.2,15.1 4.1,0.9 14.1,0.8 18.1,-0.2 13.8,-3.3 24.6,-11.8 30.6,-24.1 3.3,-6.7 4.2,-10.3 4.5,-17.8 0.3,-7.5 -0.2,-10.8 -2.5,-17.5 l -1.7,-4.8 2.2,-5.5 c 7.2,-18.2 9.3,-39.6 6,-59.8 -0.4,-2.4 -0.9,-4.7 -1.2,-5.1 -0.4,-0.7 -0.4,-0.7 -0.2,0 z"
         id="path10" /><path
         fill="#000000"
         d="m 59.6,145.3 c -10.5,5.5 -21.1,11 -23.5,12.3 -11.3,6.1 -19.3,18.9 -20.9,33.3 -2.2,18.8 7.8,36.8 24.8,45.1 6.8,3.3 10.3,4.2 18.1,4.5 7.2,0.3 11.7,-0.4 17.2,-2.4 4.7,-1.8 4.7,-1.8 10.5,0.5 18.2,7.2 39.6,9.3 59.8,6 2.4,-0.4 4.7,-0.9 5.1,-1.2 0.5,-0.3 0.4,-0.4 -0.4,-0.2 -1.7,0.3 -15.1,-0.6 -19.9,-1.4 -6.4,-1.1 -15.7,-3.5 -21.2,-5.6 -4,-1.5 -16.8,-7.2 -17.5,-7.8 -0.1,-0.1 0.5,-0.9 1.4,-1.9 2.2,-2.3 4.9,-6.2 6.8,-9.5 1.1,-1.9 1.7,-2.6 2.3,-2.4 8.2,2.5 17.2,3.6 27.3,3.4 6.7,-0.2 15.3,-1.2 16,-1.8 0.1,-0.1 -2.8,-0.3 -6.4,-0.5 -7.8,-0.3 -14.6,-1.5 -22,-4 -5.5,-1.8 -13,-5 -13,-5.5 0,-0.2 2.1,-6.9 4.6,-15.1 2.6,-8.1 4.6,-14.9 4.5,-15.1 -0.1,-0.2 -1.7,-1 -3.5,-1.8 -15.7,-6.1 -27.6,-20.7 -30.7,-38 -0.2,-0.7 -4,1.1 -19.4,9.1 z"
         id="path12" /></g></g></g></svg>
